<svg width="561" height="114" viewBox="0 0 561 114" fill="none" xmlns="http://www.w3.org/2000/svg">
<path d="M425.38 11.2794C406.49 9.84939 410.08 32.6194 409.82 56.0594C409.85 60.2594 408.34 89.7694 409.85 90.5494C415.22 111.939 446.07 112.279 439.18 83.4894C436.15 59.4994 440.93 69.4594 450.8 67.5894C460.61 66.4394 458.63 52.0094 454.22 48.4194C451 46.4094 445.57 48.5894 442.29 47.9294C438.65 47.9194 439.73 42.6994 439.75 38.2194C440.42 30.0494 442.12 32.9694 446.86 32.1694C470.53 35.2994 476.27 32.2294 472.29 14.8394C461.98 4.78939 422.76 12.6194 425.38 11.2794Z" fill="#FF80A4" stroke="white" stroke-width="9" stroke-miterlimit="10"/>
<path d="M513.84 41.5293L527.02 18.6493C527.02 18.6493 531.14 8.83934 541.03 14.5593C541.03 14.5593 562.46 21.9193 554.21 35.8093L538.14 63.9993L525.78 85.2493L514.24 103.229C514.24 103.229 506 114.669 492.81 104.859C492.81 104.859 477.98 95.8693 486.22 87.6993L500.23 63.9993L482.92 37.8493L479.62 32.1293C479.62 32.1293 471.38 22.3193 481.27 14.1493C491.16 5.97933 498.58 16.5993 498.58 16.5993C498.58 16.5993 506 26.4093 507.64 30.4893L513.84 41.5293Z" fill="#FF80A4" stroke="white" stroke-width="9" stroke-miterlimit="10"/>
<path d="M75.94 48.5994C75.12 48.0394 74.29 47.3994 73.46 46.6894C72.63 45.9694 71.69 45.3094 70.63 44.6894C69.57 44.0794 68.35 43.5694 66.96 43.1794C65.57 42.7894 63.92 42.6494 62.01 42.7394C59.46 42.8694 57.09 43.4994 54.92 44.6294C52.75 45.7594 50.87 47.2294 49.29 49.0394C47.71 50.8494 46.5 52.9194 45.67 55.2494C44.84 57.5794 44.49 59.9894 44.62 62.4694C44.75 64.9594 45.36 67.2994 46.46 69.5094C47.55 71.7194 48.98 73.6294 50.74 75.2394C52.5 76.8594 54.52 78.1094 56.8 79.0094C59.08 79.9094 61.48 80.2894 63.98 80.1594C66.07 80.0494 67.81 79.6694 69.19 79.0194C70.57 78.3694 71.84 77.5894 72.98 76.6794C74.12 75.7694 75.23 74.7894 76.32 73.7394C77.4 72.6894 78.69 71.6894 80.18 70.7394C81.31 70.0394 82.58 69.4694 84 69.0494C85.42 68.6294 86.85 68.4194 88.3 68.4094C89.74 68.3994 91.18 68.6394 92.6 69.1194C94.02 69.5994 95.32 70.3594 96.49 71.4094C99.23 73.8494 100.69 76.9194 100.89 80.5994C100.98 82.3494 100.77 84.0494 100.25 85.6894C99.73 87.3294 98.81 88.8794 97.49 90.3294C95.49 93.0194 93.37 95.3294 91.12 97.2694C88.87 99.2094 86.44 100.839 83.84 102.149C81.23 103.459 78.4 104.469 75.34 105.189C72.28 105.899 68.97 106.349 65.39 106.539C59.08 106.869 53.08 105.989 47.41 103.909C41.74 101.829 36.73 98.8394 32.38 94.9594C28.03 91.0794 24.52 86.4494 21.84 81.0694C19.16 75.6894 17.65 69.8694 17.32 63.6094C16.98 57.3994 17.87 51.4994 19.97 45.8894C22.07 40.2894 25.08 35.3194 28.99 30.9794C32.9 26.6494 37.57 23.1494 42.99 20.4894C48.41 17.8294 54.28 16.3394 60.59 16.0094C64.12 15.8294 67.37 15.9194 70.35 16.2994C73.32 16.6794 76.11 17.3594 78.7 18.3594C81.29 19.3594 83.76 20.6794 86.1 22.3394C88.44 23.9994 90.77 25.9894 93.08 28.3094C94.36 29.6294 95.36 31.0394 96.1 32.5494C96.83 34.0594 97.29 35.7294 97.48 37.5694C97.65 39.0394 97.46 40.6394 96.9 42.3794C96.34 44.1194 95.4 45.7094 94.08 47.1694C93.11 48.2394 91.97 49.1594 90.67 49.9394C89.36 50.7194 87.92 51.2294 86.35 51.4494C84.78 51.6694 83.12 51.5694 81.38 51.1494C79.63 50.7394 77.82 49.8794 75.94 48.5994Z" fill="#D7C1DD" stroke="white" stroke-width="9" stroke-miterlimit="10"/>
<path d="M101.26 29.8994C101.17 28.4794 100.94 27.0294 100.57 25.5394C100.2 24.0494 100.02 22.6394 100.02 21.3094C100.02 20.5094 100.15 19.7794 100.4 19.1094C100.65 18.4394 101.09 17.8794 101.71 17.4094C102.33 16.9394 103.19 16.5794 104.3 16.3094C105.4 16.0394 106.83 15.9094 108.58 15.9094C111.11 15.9094 113.53 16.0494 115.86 16.3394C118.18 16.6294 120.23 17.2394 122 18.1694C123.77 19.0994 125.21 20.4194 126.31 22.1294C127.41 23.8394 128.03 26.1194 128.17 28.9594V67.3994C128.17 68.9994 128.5 70.5294 129.17 71.9994C129.84 73.4694 130.79 74.7494 132.03 75.8594C133.27 76.9694 134.75 77.8494 136.48 78.4894C138.2 79.1294 140.12 79.4594 142.24 79.4594C144.03 79.4594 145.77 79.1394 147.45 78.4894C149.13 77.8494 150.62 76.9694 151.93 75.8594C153.24 74.7494 154.3 73.4594 155.1 71.9994C155.9 70.5294 156.31 68.9994 156.31 67.3994L156.17 29.8994C156.08 28.4794 155.86 27.0294 155.51 25.5394C155.17 24.0494 154.99 22.6394 154.99 21.3094C154.99 20.5094 155.12 19.7794 155.37 19.1094C155.62 18.4394 156.06 17.8794 156.68 17.4094C157.3 16.9394 158.16 16.5794 159.27 16.3094C160.37 16.0394 161.78 15.9094 163.48 15.9094C165.82 15.9094 168.16 16.0494 170.48 16.3394C172.8 16.6294 174.91 17.2294 176.79 18.1394C178.67 19.0494 180.2 20.3594 181.38 22.0694C182.55 23.7794 183.14 26.0794 183.14 28.9594L183.28 67.3194C183.19 70.7794 182.61 74.1194 181.56 77.3394C180.5 80.5594 179.04 83.5794 177.18 86.3994C175.32 89.2194 173.12 91.7894 170.59 94.1294C168.06 96.4594 165.29 98.4594 162.28 100.119C159.27 101.789 156.06 103.079 152.66 104.019C149.26 104.949 145.79 105.419 142.25 105.419C138.62 105.419 135.08 104.959 131.63 104.049C128.18 103.139 124.94 101.859 121.91 100.219C118.88 98.5794 116.09 96.5994 113.56 94.2894C111.03 91.9794 108.85 89.4194 107.01 86.5994C105.17 83.7794 103.74 80.7394 102.73 77.4794C101.72 74.2194 101.21 70.8294 101.21 67.3194L101.26 29.8994Z" fill="#D7C1DD" stroke="white" stroke-width="9" stroke-miterlimit="10"/>
<path d="M218.06 89.8194C218.06 91.6693 217.72 93.3994 217.03 95.0094C216.35 96.6194 215.41 98.0193 214.23 99.2094C213.04 100.409 211.64 101.359 210.02 102.059C208.4 102.759 206.64 103.109 204.72 103.109C202.8 103.109 201.04 102.759 199.42 102.059C197.8 101.359 196.4 100.409 195.22 99.2094C194.03 98.0094 193.1 96.6094 192.42 95.0094C191.74 93.4094 191.39 91.6794 191.39 89.8194V28.4593C191.3 27.0093 191.07 25.5294 190.71 24.0194C190.34 22.5094 190.16 21.0693 190.16 19.7093C190.16 18.8993 190.29 18.1493 190.54 17.4693C190.79 16.7893 191.22 16.2194 191.84 15.7394C192.45 15.2694 193.31 14.8894 194.4 14.6194C195.49 14.3494 196.91 14.2094 198.64 14.2094C201.24 14.2094 203.68 14.3794 205.95 14.7194C208.23 15.0594 210.23 15.7094 211.97 16.6894C213.7 17.6594 215.1 19.0194 216.17 20.7594C217.24 22.4994 217.87 24.7894 218.05 27.6393V89.8194H218.06Z" fill="#D7C1DD" stroke="white" stroke-width="9" stroke-miterlimit="10"/>
<path d="M246.23 102.339C244.59 102.339 243.03 102.079 241.57 101.569C240.11 101.049 238.81 100.329 237.67 99.3894C236.53 98.4494 235.57 97.3394 234.79 96.0594C234.01 94.7794 233.47 93.3994 233.15 91.9294C233.06 91.4794 232.99 91.0294 232.95 90.5894C232.9 90.1394 232.88 89.6694 232.88 89.1794V28.3394C232.79 26.9094 232.56 25.4394 232.2 23.9394C231.83 22.4394 231.65 21.0194 231.65 19.6694C231.65 18.8594 231.78 18.1194 232.03 17.4494C232.28 16.7794 232.72 16.2094 233.33 15.7394C233.95 15.2694 234.8 14.8994 235.9 14.6294C237 14.3594 238.41 14.2294 240.15 14.2294H266.93C271.04 14.2294 275 14.7594 278.81 15.8094C282.62 16.8594 286.2 18.3494 289.53 20.2794C292.86 22.2094 295.89 24.4994 298.61 27.1694C301.33 29.8394 303.67 32.8094 305.63 36.0794C307.59 39.3494 309.11 42.8594 310.19 46.5994C311.26 50.3394 311.8 54.2294 311.8 58.2594C311.8 64.3494 310.62 70.0794 308.27 75.4294C305.92 80.7894 302.7 85.4594 298.61 89.4394C294.52 93.4294 289.76 96.5794 284.33 98.8794C278.89 101.189 273.1 102.339 266.93 102.339H246.23ZM285 58.2494C285 55.2494 284.52 52.5694 283.56 50.2194C282.6 47.8694 281.3 45.8694 279.66 44.2394C278.02 42.5994 276.1 41.3294 273.91 40.4094C271.72 39.4894 269.39 38.9594 266.92 38.8294H259.59V76.4694H266.92C269.39 76.3394 271.71 75.8094 273.91 74.8894C276.1 73.9694 278.02 72.7294 279.66 71.1594C281.3 69.5894 282.61 67.7194 283.56 65.5494C284.52 63.3694 285 60.9394 285 58.2494Z" fill="#D7C1DD" stroke="white" stroke-width="9" stroke-miterlimit="10"/>
<path d="M389.72 88.9593C389.72 90.8293 389.38 92.5793 388.7 94.2193C388.02 95.8593 387.08 97.2793 385.89 98.4893C384.69 99.6993 383.28 100.639 381.65 101.319C380.02 101.999 378.28 102.339 376.43 102.339H335.56C333.66 102.339 331.91 101.999 330.31 101.319C328.71 100.639 327.32 99.6993 326.14 98.5193C324.96 97.3393 324.04 95.9293 323.36 94.2893C322.68 92.6493 322.34 90.8793 322.34 88.9593V27.1693C322.25 25.7093 322.02 24.2193 321.66 22.6993C321.3 21.1793 321.12 19.7293 321.12 18.3593C321.12 17.5393 321.24 16.7893 321.49 16.1093C321.74 15.4293 322.17 14.8493 322.78 14.3693C323.39 13.8893 324.24 13.5193 325.32 13.2393C326.4 12.9693 327.8 12.8293 329.52 12.8293H376.42C379.22 12.8293 381.57 13.4593 383.47 14.7093C385.37 15.9593 386.8 17.5193 387.77 19.3893C388.74 21.2593 389.24 23.2893 389.26 25.4993C389.28 27.7093 388.83 29.7493 387.9 31.6093C386.97 33.4793 385.55 35.0393 383.63 36.2893C381.71 37.5393 379.3 38.1693 376.41 38.1693H348.76V45.4093H367.94C369.97 45.4093 371.87 45.9193 373.63 46.9493C375.39 47.9693 376.83 49.3093 377.93 50.9393C379.04 52.5793 379.74 54.4093 380.03 56.4393C380.32 58.4693 380.02 60.4793 379.12 62.4793C378.08 64.7993 376.59 66.6093 374.65 67.9093C372.71 69.2093 370.47 69.8593 367.94 69.8593H348.76V75.5993H376.41C378.26 75.5993 380 75.9393 381.63 76.6193C383.26 77.2993 384.67 78.2393 385.87 79.4193C387.07 80.5993 388 82.0093 388.68 83.6493C389.39 85.2693 389.72 87.0493 389.72 88.9593Z" fill="#D7C1DD" stroke="white" stroke-width="9" stroke-miterlimit="10"/>
<path d="M82.36 43.8494C81.54 43.2894 80.71 42.6494 79.88 41.9394C79.05 41.2194 78.11 40.5594 77.05 39.9394C75.99 39.3294 74.77 38.8194 73.38 38.4294C71.99 38.0394 70.34 37.8994 68.43 37.9894C65.88 38.1194 63.51 38.7494 61.34 39.8794C59.17 41.0094 57.29 42.4794 55.71 44.2894C54.13 46.0994 52.92 48.1694 52.09 50.4994C51.26 52.8294 50.91 55.2394 51.04 57.7194C51.17 60.1994 51.78 62.5494 52.88 64.7594C53.97 66.9694 55.4 68.8794 57.16 70.4894C58.92 72.1094 60.94 73.3594 63.22 74.2594C65.5 75.1594 67.9 75.5394 70.4 75.4094C72.49 75.2994 74.23 74.9194 75.61 74.2694C76.99 73.6194 78.26 72.8394 79.4 71.9294C80.54 71.0194 81.65 70.0394 82.74 68.9894C83.82 67.9394 85.11 66.9394 86.6 65.9894C87.73 65.2894 89 64.7194 90.42 64.2994C91.84 63.8794 93.27 63.6694 94.72 63.6594C96.16 63.6494 97.6 63.8894 99.02 64.3694C100.44 64.8494 101.74 65.6094 102.91 66.6594C105.65 69.0994 107.11 72.1694 107.31 75.8494C107.4 77.5994 107.19 79.2994 106.67 80.9394C106.15 82.5794 105.23 84.1294 103.91 85.5794C101.91 88.2694 99.79 90.5794 97.54 92.5194C95.29 94.4594 92.86 96.0894 90.26 97.3994C87.65 98.7094 84.82 99.7194 81.76 100.439C78.7 101.149 75.39 101.599 71.81 101.789C65.5 102.119 59.5 101.239 53.83 99.1594C48.16 97.0794 43.15 94.0894 38.8 90.2094C34.45 86.3294 30.94 81.6994 28.26 76.3194C25.58 70.9394 24.07 65.1194 23.74 58.8594C23.41 52.6494 24.3 46.7394 26.4 41.1294C28.5 35.5294 31.51 30.5594 35.42 26.2194C39.33 21.8894 44 18.3894 49.42 15.7294C54.84 13.0694 60.71 11.5794 67.02 11.2494C70.55 11.0694 73.8 11.1594 76.78 11.5394C79.75 11.9194 82.54 12.5994 85.13 13.5994C87.72 14.5994 90.19 15.9194 92.53 17.5794C94.87 19.2394 97.2 21.2294 99.51 23.5494C100.79 24.8694 101.79 26.2794 102.53 27.7894C103.26 29.2994 103.72 30.9694 103.91 32.8094C104.08 34.2794 103.89 35.8794 103.33 37.6194C102.77 39.3594 101.83 40.9494 100.51 42.4094C99.54 43.4794 98.4 44.3994 97.1 45.1794C95.79 45.9594 94.35 46.4694 92.78 46.6894C91.21 46.9094 89.55 46.8094 87.81 46.3894C86.06 45.9894 84.24 45.1394 82.36 43.8494Z" fill="#8A3AC1" stroke="white" stroke-width="9" stroke-miterlimit="10"/>
<path d="M108.27 25.2694C108.18 23.8494 107.95 22.3994 107.58 20.9094C107.21 19.4194 107.03 18.0094 107.03 16.6794C107.03 15.8794 107.16 15.1494 107.41 14.4794C107.66 13.8094 108.1 13.2494 108.72 12.7794C109.34 12.3094 110.2 11.9494 111.31 11.6794C112.41 11.4094 113.84 11.2794 115.59 11.2794C118.12 11.2794 120.54 11.4194 122.87 11.7094C125.19 11.9994 127.24 12.6094 129.01 13.5394C130.78 14.4694 132.22 15.7894 133.32 17.4994C134.42 19.2094 135.04 21.4894 135.18 24.3294V62.7594C135.18 64.3594 135.51 65.8894 136.18 67.3594C136.85 68.8294 137.8 70.1094 139.04 71.2194C140.28 72.3294 141.76 73.2094 143.49 73.8494C145.21 74.4894 147.13 74.8194 149.25 74.8194C151.04 74.8194 152.78 74.4994 154.46 73.8494C156.14 73.2094 157.63 72.3294 158.94 71.2194C160.25 70.1094 161.31 68.8194 162.11 67.3594C162.91 65.8894 163.32 64.3594 163.32 62.7594L163.18 25.2594C163.09 23.8394 162.87 22.3894 162.52 20.8994C162.18 19.4094 162 17.9994 162 16.6694C162 15.8694 162.13 15.1394 162.38 14.4694C162.63 13.7994 163.07 13.2394 163.69 12.7694C164.31 12.2994 165.17 11.9394 166.28 11.6694C167.38 11.3994 168.79 11.2694 170.49 11.2694C172.83 11.2694 175.17 11.4094 177.49 11.6994C179.81 11.9894 181.92 12.5894 183.8 13.4994C185.68 14.4094 187.21 15.7194 188.39 17.4294C189.56 19.1394 190.15 21.4394 190.15 24.3194L190.29 62.6794C190.2 66.1394 189.62 69.4794 188.57 72.6994C187.51 75.9194 186.05 78.9394 184.19 81.7594C182.33 84.5794 180.13 87.1494 177.6 89.4894C175.07 91.8194 172.3 93.8194 169.29 95.4794C166.28 97.1494 163.07 98.4394 159.67 99.3794C156.27 100.309 152.8 100.779 149.26 100.779C145.63 100.779 142.09 100.319 138.64 99.4094C135.19 98.4994 131.95 97.2194 128.92 95.5794C125.89 93.9394 123.1 91.9594 120.57 89.6494C118.04 87.3394 115.86 84.7794 114.02 81.9594C112.18 79.1394 110.75 76.0994 109.74 72.8394C108.73 69.5794 108.22 66.1894 108.22 62.6794L108.27 25.2694Z" fill="#8A3AC1" stroke="white" stroke-width="9" stroke-miterlimit="10"/>
<path d="M225.07 85.1893C225.07 87.0393 224.73 88.7693 224.04 90.3793C223.36 91.9893 222.42 93.3893 221.24 94.5793C220.05 95.7793 218.65 96.7293 217.03 97.4293C215.41 98.1293 213.65 98.4793 211.73 98.4793C209.82 98.4793 208.05 98.1293 206.43 97.4293C204.81 96.7293 203.41 95.7793 202.23 94.5793C201.04 93.3793 200.11 91.9793 199.43 90.3793C198.75 88.7793 198.4 87.0493 198.4 85.1893V23.8293C198.31 22.3793 198.08 20.8993 197.72 19.3893C197.35 17.8793 197.17 16.4393 197.17 15.0793C197.17 14.2693 197.3 13.5193 197.55 12.8393C197.8 12.1593 198.23 11.5893 198.85 11.1093C199.46 10.6393 200.32 10.2593 201.41 9.98935C202.5 9.71935 203.92 9.57935 205.65 9.57935C208.25 9.57935 210.69 9.74935 212.96 10.0893C215.24 10.4293 217.24 11.0793 218.98 12.0593C220.71 13.0293 222.11 14.3893 223.18 16.1293C224.25 17.8693 224.88 20.1593 225.06 23.0093V85.1893H225.07Z" fill="#8A3AC1" stroke="white" stroke-width="9" stroke-miterlimit="10"/>
<path d="M253.23 97.7094C251.59 97.7094 250.03 97.4494 248.57 96.9394C247.11 96.4194 245.81 95.6994 244.67 94.7594C243.53 93.8194 242.57 92.7094 241.79 91.4294C241.01 90.1494 240.47 88.7694 240.15 87.2994C240.06 86.8494 239.99 86.3994 239.95 85.9594C239.9 85.5094 239.88 85.0394 239.88 84.5494V23.7094C239.79 22.2794 239.56 20.8094 239.2 19.3094C238.83 17.8094 238.65 16.3894 238.65 15.0394C238.65 14.2294 238.78 13.4894 239.03 12.8194C239.28 12.1494 239.72 11.5794 240.33 11.1094C240.95 10.6394 241.8 10.2694 242.9 9.99936C244 9.72936 245.41 9.59937 247.15 9.59937H273.93C278.04 9.59937 282 10.1294 285.81 11.1794C289.62 12.2294 293.2 13.7194 296.53 15.6494C299.86 17.5794 302.89 19.8694 305.61 22.5394C308.33 25.2094 310.67 28.1794 312.63 31.4494C314.59 34.7194 316.11 38.2294 317.19 41.9694C318.26 45.7094 318.8 49.5994 318.8 53.6294C318.8 59.7194 317.62 65.4494 315.27 70.7994C312.92 76.1594 309.7 80.8294 305.61 84.8094C301.52 88.7994 296.76 91.9494 291.33 94.2494C285.89 96.5594 280.1 97.7094 273.93 97.7094H253.23ZM292 53.6194C292 50.6194 291.52 47.9394 290.56 45.5894C289.6 43.2394 288.3 41.2394 286.66 39.6094C285.02 37.9694 283.1 36.6994 280.91 35.7794C278.72 34.8594 276.39 34.3294 273.92 34.1994H266.59V71.8394H273.92C276.39 71.7094 278.71 71.1794 280.91 70.2594C283.1 69.3394 285.02 68.0994 286.66 66.5294C288.3 64.9594 289.61 63.0894 290.56 60.9194C291.52 58.7394 292 56.3094 292 53.6194Z" fill="#8A3AC1" stroke="white" stroke-width="9" stroke-miterlimit="10"/>
<path d="M396.73 84.3293C396.73 86.1993 396.39 87.9493 395.71 89.5893C395.03 91.2293 394.09 92.6493 392.9 93.8593C391.7 95.0693 390.29 96.0093 388.66 96.6893C387.03 97.3693 385.29 97.7093 383.44 97.7093H342.57C340.67 97.7093 338.92 97.3693 337.32 96.6893C335.72 96.0093 334.33 95.0693 333.15 93.8893C331.97 92.7093 331.05 91.2993 330.37 89.6593C329.69 88.0193 329.35 86.2493 329.35 84.3293V22.5393C329.26 21.0793 329.03 19.5893 328.67 18.0693C328.31 16.5493 328.13 15.0993 328.13 13.7293C328.13 12.9093 328.25 12.1593 328.5 11.4793C328.75 10.7993 329.18 10.2193 329.79 9.73934C330.4 9.25934 331.25 8.88934 332.33 8.60934C333.41 8.33934 334.81 8.19934 336.53 8.19934H383.43C386.23 8.19934 388.58 8.82934 390.48 10.0793C392.38 11.3293 393.81 12.8893 394.78 14.7593C395.75 16.6293 396.25 18.6593 396.27 20.8693C396.29 23.0793 395.84 25.1193 394.91 26.9793C393.98 28.8493 392.56 30.4093 390.64 31.6593C388.72 32.9093 386.31 33.5393 383.42 33.5393H355.77V40.7793H374.95C376.98 40.7793 378.88 41.2893 380.64 42.3193C382.4 43.3393 383.84 44.6793 384.94 46.3093C386.05 47.9493 386.75 49.7793 387.04 51.8093C387.33 53.8393 387.03 55.8493 386.13 57.8493C385.09 60.1693 383.6 61.9793 381.66 63.2793C379.72 64.5793 377.48 65.2293 374.95 65.2293H355.77V70.9693H383.42C385.27 70.9693 387.01 71.3093 388.64 71.9893C390.27 72.6693 391.68 73.6093 392.88 74.7893C394.08 75.9693 395.01 77.3793 395.69 79.0193C396.39 80.6393 396.73 82.4193 396.73 84.3293Z" fill="#8A3AC1" stroke="white" stroke-width="9" stroke-miterlimit="10"/>
<path d="M421.49 6.64939C402.6 5.21939 406.19 27.9894 405.93 51.4294C405.96 55.6294 404.45 85.1394 405.96 85.9194C411.33 107.309 442.18 107.649 435.29 78.8594C432.26 54.8694 437.04 64.8294 446.91 62.9594C456.72 61.8094 454.74 47.3794 450.33 43.7894C447.11 41.7794 441.68 43.9594 438.4 43.2994C434.76 43.2894 435.84 38.0694 435.86 33.5894C436.53 25.4194 438.23 28.3394 442.97 27.5394C466.64 30.6694 472.38 27.5994 468.4 10.2094C458.09 0.159386 418.87 7.98939 421.49 6.64939Z" fill="#00F48D" stroke="white" stroke-width="9" stroke-miterlimit="10"/>
<path d="M508.64 35.8394L521.36 13.7594C521.36 13.7594 525.34 4.29943 534.88 9.81943C534.88 9.81943 555.56 16.9194 547.6 30.3294L532.1 57.5294L520.17 78.0394L509.04 95.3894C509.04 95.3894 501.09 106.429 488.36 96.9694C488.36 96.9694 474.05 88.2894 482 80.4094L495.52 57.5394L478.82 32.2994L475.64 26.7794C475.64 26.7794 467.69 17.3194 477.23 9.42944C486.77 1.53944 493.93 11.7994 493.93 11.7994C493.93 11.7994 501.09 21.2594 502.68 25.2094L508.64 35.8394Z" fill="#00F48D" stroke="white" stroke-width="9" stroke-miterlimit="10"/>
<path d="M23.15 66.6294C33.174 66.6294 41.3 58.5705 41.3 48.6294C41.3 38.6883 33.174 30.6294 23.15 30.6294C13.126 30.6294 5 38.6883 5 48.6294C5 58.5705 13.126 66.6294 23.15 66.6294Z" fill="#FF7C00" stroke="white" stroke-width="9" stroke-miterlimit="10"/>
<path d="M425.38 11.2794C406.49 9.84939 410.08 32.6194 409.82 56.0594C409.85 60.2594 408.34 89.7694 409.85 90.5494C415.22 111.939 446.07 112.279 439.18 83.4894C436.15 59.4994 440.93 69.4594 450.8 67.5894C460.61 66.4394 458.63 52.0094 454.22 48.4194C451 46.4094 445.57 48.5894 442.29 47.9294C438.65 47.9194 439.73 42.6994 439.75 38.2194C440.42 30.0494 442.12 32.9694 446.86 32.1694C470.53 35.2994 476.27 32.2294 472.29 14.8394C461.98 4.78939 422.76 12.6194 425.38 11.2794Z" fill="#FF80A4"/>
<path d="M513.84 41.5293L527.02 18.6493C527.02 18.6493 531.14 8.83934 541.03 14.5593C541.03 14.5593 562.46 21.9193 554.21 35.8093L538.14 63.9993L525.78 85.2493L514.24 103.229C514.24 103.229 506 114.669 492.81 104.859C492.81 104.859 477.98 95.8693 486.22 87.6993L500.23 63.9993L482.92 37.8493L479.62 32.1293C479.62 32.1293 471.38 22.3193 481.27 14.1493C491.16 5.97933 498.58 16.5993 498.58 16.5993C498.58 16.5993 506 26.4093 507.64 30.4893L513.84 41.5293Z" fill="#FF80A4"/>
<path d="M75.94 48.5994C75.12 48.0394 74.29 47.3994 73.46 46.6894C72.63 45.9694 71.69 45.3094 70.63 44.6894C69.57 44.0794 68.35 43.5694 66.96 43.1794C65.57 42.7894 63.92 42.6494 62.01 42.7394C59.46 42.8694 57.09 43.4994 54.92 44.6294C52.75 45.7594 50.87 47.2294 49.29 49.0394C47.71 50.8494 46.5 52.9194 45.67 55.2494C44.84 57.5794 44.49 59.9894 44.62 62.4694C44.75 64.9594 45.36 67.2994 46.46 69.5094C47.55 71.7194 48.98 73.6294 50.74 75.2394C52.5 76.8594 54.52 78.1094 56.8 79.0094C59.08 79.9094 61.48 80.2894 63.98 80.1594C66.07 80.0494 67.81 79.6694 69.19 79.0194C70.57 78.3694 71.84 77.5894 72.98 76.6794C74.12 75.7694 75.23 74.7894 76.32 73.7394C77.4 72.6894 78.69 71.6894 80.18 70.7394C81.31 70.0394 82.58 69.4694 84 69.0494C85.42 68.6294 86.85 68.4194 88.3 68.4094C89.74 68.3994 91.18 68.6394 92.6 69.1194C94.02 69.5994 95.32 70.3594 96.49 71.4094C99.23 73.8494 100.69 76.9194 100.89 80.5994C100.98 82.3494 100.77 84.0494 100.25 85.6894C99.73 87.3294 98.81 88.8794 97.49 90.3294C95.49 93.0194 93.37 95.3294 91.12 97.2694C88.87 99.2094 86.44 100.839 83.84 102.149C81.23 103.459 78.4 104.469 75.34 105.189C72.28 105.899 68.97 106.349 65.39 106.539C59.08 106.869 53.08 105.989 47.41 103.909C41.74 101.829 36.73 98.8394 32.38 94.9594C28.03 91.0794 24.52 86.4494 21.84 81.0694C19.16 75.6894 17.65 69.8694 17.32 63.6094C16.98 57.3994 17.87 51.4994 19.97 45.8894C22.07 40.2894 25.08 35.3194 28.99 30.9794C32.9 26.6494 37.57 23.1494 42.99 20.4894C48.41 17.8294 54.28 16.3394 60.59 16.0094C64.12 15.8294 67.37 15.9194 70.35 16.2994C73.32 16.6794 76.11 17.3594 78.7 18.3594C81.29 19.3594 83.76 20.6794 86.1 22.3394C88.44 23.9994 90.77 25.9894 93.08 28.3094C94.36 29.6294 95.36 31.0394 96.1 32.5494C96.83 34.0594 97.29 35.7294 97.48 37.5694C97.65 39.0394 97.46 40.6394 96.9 42.3794C96.34 44.1194 95.4 45.7094 94.08 47.1694C93.11 48.2394 91.97 49.1594 90.67 49.9394C89.36 50.7194 87.92 51.2294 86.35 51.4494C84.78 51.6694 83.12 51.5694 81.38 51.1494C79.63 50.7394 77.82 49.8794 75.94 48.5994Z" fill="#D7C1DD"/>
<path d="M101.26 29.8994C101.17 28.4794 100.94 27.0294 100.57 25.5394C100.2 24.0494 100.02 22.6394 100.02 21.3094C100.02 20.5094 100.15 19.7794 100.4 19.1094C100.65 18.4394 101.09 17.8794 101.71 17.4094C102.33 16.9394 103.19 16.5794 104.3 16.3094C105.4 16.0394 106.83 15.9094 108.58 15.9094C111.11 15.9094 113.53 16.0494 115.86 16.3394C118.18 16.6294 120.23 17.2394 122 18.1694C123.77 19.0994 125.21 20.4194 126.31 22.1294C127.41 23.8394 128.03 26.1194 128.17 28.9594V67.3994C128.17 68.9994 128.5 70.5294 129.17 71.9994C129.84 73.4694 130.79 74.7494 132.03 75.8594C133.27 76.9694 134.75 77.8494 136.48 78.4894C138.2 79.1294 140.12 79.4594 142.24 79.4594C144.03 79.4594 145.77 79.1394 147.45 78.4894C149.13 77.8494 150.62 76.9694 151.93 75.8594C153.24 74.7494 154.3 73.4594 155.1 71.9994C155.9 70.5294 156.31 68.9994 156.31 67.3994L156.17 29.8994C156.08 28.4794 155.86 27.0294 155.51 25.5394C155.17 24.0494 154.99 22.6394 154.99 21.3094C154.99 20.5094 155.12 19.7794 155.37 19.1094C155.62 18.4394 156.06 17.8794 156.68 17.4094C157.3 16.9394 158.16 16.5794 159.27 16.3094C160.37 16.0394 161.78 15.9094 163.48 15.9094C165.82 15.9094 168.16 16.0494 170.48 16.3394C172.8 16.6294 174.91 17.2294 176.79 18.1394C178.67 19.0494 180.2 20.3594 181.38 22.0694C182.55 23.7794 183.14 26.0794 183.14 28.9594L183.28 67.3194C183.19 70.7794 182.61 74.1194 181.56 77.3394C180.5 80.5594 179.04 83.5794 177.18 86.3994C175.32 89.2194 173.12 91.7894 170.59 94.1294C168.06 96.4594 165.29 98.4594 162.28 100.119C159.27 101.789 156.06 103.079 152.66 104.019C149.26 104.949 145.79 105.419 142.25 105.419C138.62 105.419 135.08 104.959 131.63 104.049C128.18 103.139 124.94 101.859 121.91 100.219C118.88 98.5794 116.09 96.5994 113.56 94.2894C111.03 91.9794 108.85 89.4194 107.01 86.5994C105.17 83.7794 103.74 80.7394 102.73 77.4794C101.72 74.2194 101.21 70.8294 101.21 67.3194L101.26 29.8994Z" fill="#D7C1DD"/>
<path d="M218.06 89.8194C218.06 91.6693 217.72 93.3994 217.03 95.0094C216.35 96.6194 215.41 98.0193 214.23 99.2094C213.04 100.409 211.64 101.359 210.02 102.059C208.4 102.759 206.64 103.109 204.72 103.109C202.8 103.109 201.04 102.759 199.42 102.059C197.8 101.359 196.4 100.409 195.22 99.2094C194.03 98.0094 193.1 96.6094 192.42 95.0094C191.74 93.4094 191.39 91.6794 191.39 89.8194V28.4593C191.3 27.0093 191.07 25.5294 190.71 24.0194C190.34 22.5094 190.16 21.0693 190.16 19.7093C190.16 18.8993 190.29 18.1493 190.54 17.4693C190.79 16.7893 191.22 16.2194 191.84 15.7394C192.45 15.2694 193.31 14.8894 194.4 14.6194C195.49 14.3494 196.91 14.2094 198.64 14.2094C201.24 14.2094 203.68 14.3794 205.95 14.7194C208.23 15.0594 210.23 15.7094 211.97 16.6894C213.7 17.6594 215.1 19.0194 216.17 20.7594C217.24 22.4994 217.87 24.7894 218.05 27.6393V89.8194H218.06Z" fill="#D7C1DD"/>
<path d="M246.23 102.339C244.59 102.339 243.03 102.079 241.57 101.569C240.11 101.049 238.81 100.329 237.67 99.3894C236.53 98.4494 235.57 97.3394 234.79 96.0594C234.01 94.7794 233.47 93.3994 233.15 91.9294C233.06 91.4794 232.99 91.0294 232.95 90.5894C232.9 90.1394 232.88 89.6694 232.88 89.1794V28.3394C232.79 26.9094 232.56 25.4394 232.2 23.9394C231.83 22.4394 231.65 21.0194 231.65 19.6694C231.65 18.8594 231.78 18.1194 232.03 17.4494C232.28 16.7794 232.72 16.2094 233.33 15.7394C233.95 15.2694 234.8 14.8994 235.9 14.6294C237 14.3594 238.41 14.2294 240.15 14.2294H266.93C271.04 14.2294 275 14.7594 278.81 15.8094C282.62 16.8594 286.2 18.3494 289.53 20.2794C292.86 22.2094 295.89 24.4994 298.61 27.1694C301.33 29.8394 303.67 32.8094 305.63 36.0794C307.59 39.3494 309.11 42.8594 310.19 46.5994C311.26 50.3394 311.8 54.2294 311.8 58.2594C311.8 64.3494 310.62 70.0794 308.27 75.4294C305.92 80.7894 302.7 85.4594 298.61 89.4394C294.52 93.4294 289.76 96.5794 284.33 98.8794C278.89 101.189 273.1 102.339 266.93 102.339H246.23ZM285 58.2494C285 55.2494 284.52 52.5694 283.56 50.2194C282.6 47.8694 281.3 45.8694 279.66 44.2394C278.02 42.5994 276.1 41.3294 273.91 40.4094C271.72 39.4894 269.39 38.9594 266.92 38.8294H259.59V76.4694H266.92C269.39 76.3394 271.71 75.8094 273.91 74.8894C276.1 73.9694 278.02 72.7294 279.66 71.1594C281.3 69.5894 282.61 67.7194 283.56 65.5494C284.52 63.3694 285 60.9394 285 58.2494Z" fill="#D7C1DD"/>
<path d="M389.72 88.9593C389.72 90.8293 389.38 92.5793 388.7 94.2193C388.02 95.8593 387.08 97.2793 385.89 98.4893C384.69 99.6993 383.28 100.639 381.65 101.319C380.02 101.999 378.28 102.339 376.43 102.339H335.56C333.66 102.339 331.91 101.999 330.31 101.319C328.71 100.639 327.32 99.6993 326.14 98.5193C324.96 97.3393 324.04 95.9293 323.36 94.2893C322.68 92.6493 322.34 90.8793 322.34 88.9593V27.1693C322.25 25.7093 322.02 24.2193 321.66 22.6993C321.3 21.1793 321.12 19.7293 321.12 18.3593C321.12 17.5393 321.24 16.7893 321.49 16.1093C321.74 15.4293 322.17 14.8493 322.78 14.3693C323.39 13.8893 324.24 13.5193 325.32 13.2393C326.4 12.9693 327.8 12.8293 329.52 12.8293H376.42C379.22 12.8293 381.57 13.4593 383.47 14.7093C385.37 15.9593 386.8 17.5193 387.77 19.3893C388.74 21.2593 389.24 23.2893 389.26 25.4993C389.28 27.7093 388.83 29.7493 387.9 31.6093C386.97 33.4793 385.55 35.0393 383.63 36.2893C381.71 37.5393 379.3 38.1693 376.41 38.1693H348.76V45.4093H367.94C369.97 45.4093 371.87 45.9193 373.63 46.9493C375.39 47.9693 376.83 49.3093 377.93 50.9393C379.04 52.5793 379.74 54.4093 380.03 56.4393C380.32 58.4693 380.02 60.4793 379.12 62.4793C378.08 64.7993 376.59 66.6093 374.65 67.9093C372.71 69.2093 370.47 69.8593 367.94 69.8593H348.76V75.5993H376.41C378.26 75.5993 380 75.9393 381.63 76.6193C383.26 77.2993 384.67 78.2393 385.87 79.4193C387.07 80.5993 388 82.0093 388.68 83.6493C389.39 85.2693 389.72 87.0493 389.72 88.9593Z" fill="#D7C1DD"/>
<path d="M82.36 43.8494C81.54 43.2894 80.71 42.6494 79.88 41.9394C79.05 41.2194 78.11 40.5594 77.05 39.9394C75.99 39.3294 74.77 38.8194 73.38 38.4294C71.99 38.0394 70.34 37.8994 68.43 37.9894C65.88 38.1194 63.51 38.7494 61.34 39.8794C59.17 41.0094 57.29 42.4794 55.71 44.2894C54.13 46.0994 52.92 48.1694 52.09 50.4994C51.26 52.8294 50.91 55.2394 51.04 57.7194C51.17 60.1994 51.78 62.5494 52.88 64.7594C53.97 66.9694 55.4 68.8794 57.16 70.4894C58.92 72.1094 60.94 73.3594 63.22 74.2594C65.5 75.1594 67.9 75.5394 70.4 75.4094C72.49 75.2994 74.23 74.9194 75.61 74.2694C76.99 73.6194 78.26 72.8394 79.4 71.9294C80.54 71.0194 81.65 70.0394 82.74 68.9894C83.82 67.9394 85.11 66.9394 86.6 65.9894C87.73 65.2894 89 64.7194 90.42 64.2994C91.84 63.8794 93.27 63.6694 94.72 63.6594C96.16 63.6494 97.6 63.8894 99.02 64.3694C100.44 64.8494 101.74 65.6094 102.91 66.6594C105.65 69.0994 107.11 72.1694 107.31 75.8494C107.4 77.5994 107.19 79.2994 106.67 80.9394C106.15 82.5794 105.23 84.1294 103.91 85.5794C101.91 88.2694 99.79 90.5794 97.54 92.5194C95.29 94.4594 92.86 96.0894 90.26 97.3994C87.65 98.7094 84.82 99.7194 81.76 100.439C78.7 101.149 75.39 101.599 71.81 101.789C65.5 102.119 59.5 101.239 53.83 99.1594C48.16 97.0794 43.15 94.0894 38.8 90.2094C34.45 86.3294 30.94 81.6994 28.26 76.3194C25.58 70.9394 24.07 65.1194 23.74 58.8594C23.41 52.6494 24.3 46.7394 26.4 41.1294C28.5 35.5294 31.51 30.5594 35.42 26.2194C39.33 21.8894 44 18.3894 49.42 15.7294C54.84 13.0694 60.71 11.5794 67.02 11.2494C70.55 11.0694 73.8 11.1594 76.78 11.5394C79.75 11.9194 82.54 12.5994 85.13 13.5994C87.72 14.5994 90.19 15.9194 92.53 17.5794C94.87 19.2394 97.2 21.2294 99.51 23.5494C100.79 24.8694 101.79 26.2794 102.53 27.7894C103.26 29.2994 103.72 30.9694 103.91 32.8094C104.08 34.2794 103.89 35.8794 103.33 37.6194C102.77 39.3594 101.83 40.9494 100.51 42.4094C99.54 43.4794 98.4 44.3994 97.1 45.1794C95.79 45.9594 94.35 46.4694 92.78 46.6894C91.21 46.9094 89.55 46.8094 87.81 46.3894C86.06 45.9894 84.24 45.1394 82.36 43.8494Z" fill="#8A3AC1"/>
<path d="M108.27 25.2694C108.18 23.8494 107.95 22.3994 107.58 20.9094C107.21 19.4194 107.03 18.0094 107.03 16.6794C107.03 15.8794 107.16 15.1494 107.41 14.4794C107.66 13.8094 108.1 13.2494 108.72 12.7794C109.34 12.3094 110.2 11.9494 111.31 11.6794C112.41 11.4094 113.84 11.2794 115.59 11.2794C118.12 11.2794 120.54 11.4194 122.87 11.7094C125.19 11.9994 127.24 12.6094 129.01 13.5394C130.78 14.4694 132.22 15.7894 133.32 17.4994C134.42 19.2094 135.04 21.4894 135.18 24.3294V62.7594C135.18 64.3594 135.51 65.8894 136.18 67.3594C136.85 68.8294 137.8 70.1094 139.04 71.2194C140.28 72.3294 141.76 73.2094 143.49 73.8494C145.21 74.4894 147.13 74.8194 149.25 74.8194C151.04 74.8194 152.78 74.4994 154.46 73.8494C156.14 73.2094 157.63 72.3294 158.94 71.2194C160.25 70.1094 161.31 68.8194 162.11 67.3594C162.91 65.8894 163.32 64.3594 163.32 62.7594L163.18 25.2594C163.09 23.8394 162.87 22.3894 162.52 20.8994C162.18 19.4094 162 17.9994 162 16.6694C162 15.8694 162.13 15.1394 162.38 14.4694C162.63 13.7994 163.07 13.2394 163.69 12.7694C164.31 12.2994 165.17 11.9394 166.28 11.6694C167.38 11.3994 168.79 11.2694 170.49 11.2694C172.83 11.2694 175.17 11.4094 177.49 11.6994C179.81 11.9894 181.92 12.5894 183.8 13.4994C185.68 14.4094 187.21 15.7194 188.39 17.4294C189.56 19.1394 190.15 21.4394 190.15 24.3194L190.29 62.6794C190.2 66.1394 189.62 69.4794 188.57 72.6994C187.51 75.9194 186.05 78.9394 184.19 81.7594C182.33 84.5794 180.13 87.1494 177.6 89.4894C175.07 91.8194 172.3 93.8194 169.29 95.4794C166.28 97.1494 163.07 98.4394 159.67 99.3794C156.27 100.309 152.8 100.779 149.26 100.779C145.63 100.779 142.09 100.319 138.64 99.4094C135.19 98.4994 131.95 97.2194 128.92 95.5794C125.89 93.9394 123.1 91.9594 120.57 89.6494C118.04 87.3394 115.86 84.7794 114.02 81.9594C112.18 79.1394 110.75 76.0994 109.74 72.8394C108.73 69.5794 108.22 66.1894 108.22 62.6794L108.27 25.2694Z" fill="#8A3AC1"/>
<path d="M225.07 85.1893C225.07 87.0393 224.73 88.7693 224.04 90.3793C223.36 91.9893 222.42 93.3893 221.24 94.5793C220.05 95.7793 218.65 96.7293 217.03 97.4293C215.41 98.1293 213.65 98.4793 211.73 98.4793C209.82 98.4793 208.05 98.1293 206.43 97.4293C204.81 96.7293 203.41 95.7793 202.23 94.5793C201.04 93.3793 200.11 91.9793 199.43 90.3793C198.75 88.7793 198.4 87.0493 198.4 85.1893V23.8293C198.31 22.3793 198.08 20.8993 197.72 19.3893C197.35 17.8793 197.17 16.4393 197.17 15.0793C197.17 14.2693 197.3 13.5193 197.55 12.8393C197.8 12.1593 198.23 11.5893 198.85 11.1093C199.46 10.6393 200.32 10.2593 201.41 9.98935C202.5 9.71935 203.92 9.57935 205.65 9.57935C208.25 9.57935 210.69 9.74935 212.96 10.0893C215.24 10.4293 217.24 11.0793 218.98 12.0593C220.71 13.0293 222.11 14.3893 223.18 16.1293C224.25 17.8693 224.88 20.1593 225.06 23.0093V85.1893H225.07Z" fill="#8A3AC1"/>
<path d="M253.23 97.7094C251.59 97.7094 250.03 97.4494 248.57 96.9394C247.11 96.4194 245.81 95.6994 244.67 94.7594C243.53 93.8194 242.57 92.7094 241.79 91.4294C241.01 90.1494 240.47 88.7694 240.15 87.2994C240.06 86.8494 239.99 86.3994 239.95 85.9594C239.9 85.5094 239.88 85.0394 239.88 84.5494V23.7094C239.79 22.2794 239.56 20.8094 239.2 19.3094C238.83 17.8094 238.65 16.3894 238.65 15.0394C238.65 14.2294 238.78 13.4894 239.03 12.8194C239.28 12.1494 239.72 11.5794 240.33 11.1094C240.95 10.6394 241.8 10.2694 242.9 9.99936C244 9.72936 245.41 9.59937 247.15 9.59937H273.93C278.04 9.59937 282 10.1294 285.81 11.1794C289.62 12.2294 293.2 13.7194 296.53 15.6494C299.86 17.5794 302.89 19.8694 305.61 22.5394C308.33 25.2094 310.67 28.1794 312.63 31.4494C314.59 34.7194 316.11 38.2294 317.19 41.9694C318.26 45.7094 318.8 49.5994 318.8 53.6294C318.8 59.7194 317.62 65.4494 315.27 70.7994C312.92 76.1594 309.7 80.8294 305.61 84.8094C301.52 88.7994 296.76 91.9494 291.33 94.2494C285.89 96.5594 280.1 97.7094 273.93 97.7094H253.23ZM292 53.6194C292 50.6194 291.52 47.9394 290.56 45.5894C289.6 43.2394 288.3 41.2394 286.66 39.6094C285.02 37.9694 283.1 36.6994 280.91 35.7794C278.72 34.8594 276.39 34.3294 273.92 34.1994H266.59V71.8394H273.92C276.39 71.7094 278.71 71.1794 280.91 70.2594C283.1 69.3394 285.02 68.0994 286.66 66.5294C288.3 64.9594 289.61 63.0894 290.56 60.9194C291.52 58.7394 292 56.3094 292 53.6194Z" fill="#8A3AC1"/>
<path d="M396.73 84.3293C396.73 86.1993 396.39 87.9493 395.71 89.5893C395.03 91.2293 394.09 92.6493 392.9 93.8593C391.7 95.0693 390.29 96.0093 388.66 96.6893C387.03 97.3693 385.29 97.7093 383.44 97.7093H342.57C340.67 97.7093 338.92 97.3693 337.32 96.6893C335.72 96.0093 334.33 95.0693 333.15 93.8893C331.97 92.7093 331.05 91.2993 330.37 89.6593C329.69 88.0193 329.35 86.2493 329.35 84.3293V22.5393C329.26 21.0793 329.03 19.5893 328.67 18.0693C328.31 16.5493 328.13 15.0993 328.13 13.7293C328.13 12.9093 328.25 12.1593 328.5 11.4793C328.75 10.7993 329.18 10.2193 329.79 9.73934C330.4 9.25934 331.25 8.88934 332.33 8.60934C333.41 8.33934 334.81 8.19934 336.53 8.19934H383.43C386.23 8.19934 388.58 8.82934 390.48 10.0793C392.38 11.3293 393.81 12.8893 394.78 14.7593C395.75 16.6293 396.25 18.6593 396.27 20.8693C396.29 23.0793 395.84 25.1193 394.91 26.9793C393.98 28.8493 392.56 30.4093 390.64 31.6593C388.72 32.9093 386.31 33.5393 383.42 33.5393H355.77V40.7793H374.95C376.98 40.7793 378.88 41.2893 380.64 42.3193C382.4 43.3393 383.84 44.6793 384.94 46.3093C386.05 47.9493 386.75 49.7793 387.04 51.8093C387.33 53.8393 387.03 55.8493 386.13 57.8493C385.09 60.1693 383.6 61.9793 381.66 63.2793C379.72 64.5793 377.48 65.2293 374.95 65.2293H355.77V70.9693H383.42C385.27 70.9693 387.01 71.3093 388.64 71.9893C390.27 72.6693 391.68 73.6093 392.88 74.7893C394.08 75.9693 395.01 77.3793 395.69 79.0193C396.39 80.6393 396.73 82.4193 396.73 84.3293Z" fill="#8A3AC1"/>
<path d="M421.49 6.64939C402.6 5.21939 406.19 27.9894 405.93 51.4294C405.96 55.6294 404.45 85.1394 405.96 85.9194C411.33 107.309 442.18 107.649 435.29 78.8594C432.26 54.8694 437.04 64.8294 446.91 62.9594C456.72 61.8094 454.74 47.3794 450.33 43.7894C447.11 41.7794 441.68 43.9594 438.4 43.2994C434.76 43.2894 435.84 38.0694 435.86 33.5894C436.53 25.4194 438.23 28.3394 442.97 27.5394C466.64 30.6694 472.38 27.5994 468.4 10.2094C458.09 0.159386 418.87 7.98939 421.49 6.64939Z" fill="#00F48D"/>
<path d="M508.64 35.8394L521.36 13.7594C521.36 13.7594 525.34 4.29943 534.88 9.81943C534.88 9.81943 555.56 16.9194 547.6 30.3294L532.1 57.5294L520.17 78.0394L509.04 95.3894C509.04 95.3894 501.09 106.429 488.36 96.9694C488.36 96.9694 474.05 88.2894 482 80.4094L495.52 57.5394L478.82 32.2994L475.64 26.7794C475.64 26.7794 467.69 17.3194 477.23 9.42944C486.77 1.53944 493.93 11.7994 493.93 11.7994C493.93 11.7994 501.09 21.2594 502.68 25.2094L508.64 35.8394Z" fill="#00F48D"/>
<path d="M23.15 66.6294C33.174 66.6294 41.3 58.5705 41.3 48.6294C41.3 38.6883 33.174 30.6294 23.15 30.6294C13.126 30.6294 5 38.6883 5 48.6294C5 58.5705 13.126 66.6294 23.15 66.6294Z" fill="#FF7C00"/>
</svg>
