<svg width="1383" height="266" viewBox="0 0 1383 266" fill="none" xmlns="http://www.w3.org/2000/svg">
<path d="M254.6 64H343.48L367.68 88.2V193.8L343.48 218H254.6V64ZM336 203.04L350.96 188.3V93.7L336 78.96H271.32V203.04H336ZM397.394 197.76V128.68L417.634 108.44H472.854L493.314 128.68V168.06H413.674V192.7L424.674 203.48H465.814L476.814 192.7V184.34H493.094V197.76L472.854 218H417.634L397.394 197.76ZM477.034 153.98V133.74L466.034 122.96H424.674L413.674 133.74V153.98H477.034ZM507.566 108.44H524.286L556.846 201.72H557.726L590.286 108.44H607.006L566.746 218H547.826L507.566 108.44ZM627.998 64H725.238V78.96H644.718V134.4H714.678V149.36H644.718V218H627.998V64ZM740.499 197.76V128.68L760.739 108.44H817.059L837.299 128.68V197.76L817.059 218H760.739L740.499 197.76ZM810.019 203.48L821.019 192.7V133.74L810.019 122.96H767.779L756.779 133.74V192.7L767.779 203.48H810.019ZM868.168 108.44H884.008V128.02L903.588 108.44H931.968V122.96H907.768L884.448 146.28V218H868.168V108.44ZM1041.83 108.44V245.94L1021.81 265.96H967.47L950.53 249.02V235.6H966.81V243.74L974.51 251.44H1014.55L1025.55 240.66V199.74L1005.31 218H965.27L945.03 197.76V128.68L965.27 108.44H1006.85L1025.99 127.58V108.44H1041.83ZM1025.55 146.06L1002.45 122.96H972.31L961.31 133.74V192.7L972.31 203.48H1002.67L1025.55 182.14V146.06ZM1072.65 197.76V128.68L1092.89 108.44H1148.11L1168.57 128.68V168.06H1088.93V192.7L1099.93 203.48H1141.07L1152.07 192.7V184.34H1168.35V197.76L1148.11 218H1092.89L1072.65 197.76ZM1152.29 153.98V133.74L1141.29 122.96H1099.93L1088.93 133.74V153.98H1152.29Z" fill="white"/>
<ellipse cx="100.977" cy="139.68" rx="34.8196" ry="39.3786" fill="white"/>
<rect width="11.9797" height="188.787" transform="matrix(0.689564 0.724224 -0.635479 0.772119 166.275 50.5226)" fill="white"/>
<rect width="14.0538" height="143.618" transform="matrix(1 -0.000622252 0.000265085 1 94.989 76.2371)" fill="white"/>
<path d="M192.668 50.5943C192.668 63.0728 184.094 73.1886 173.517 73.1886C162.941 73.1886 154.367 63.0728 154.367 50.5943C154.367 38.1158 162.941 28 173.517 28C184.094 28 192.668 38.1158 192.668 50.5943Z" fill="white"/>
<path d="M63.8357 204.881C63.8357 215.577 56.0411 224.248 46.4259 224.248C36.8107 224.248 29.0161 215.577 29.0161 204.881C29.0161 194.185 36.8107 185.515 46.4259 185.515C56.0411 185.515 63.8357 194.185 63.8357 204.881Z" fill="white"/>
<rect width="15.2324" height="176.931" transform="matrix(-0.558943 0.829206 -0.75812 -0.652115 159.129 183.305)" fill="white"/>
<path d="M161.343 213.2C151.138 214.336 142.062 206.051 141.071 194.696C140.081 183.34 147.551 173.214 157.756 172.078C167.961 170.942 177.037 179.227 178.028 190.582C179.018 201.938 171.548 212.064 161.343 213.2Z" fill="white"/>
<path d="M22.0647 93.1274C11.8594 94.2632 2.78361 85.9784 1.79321 74.6228C0.802815 63.2672 8.2729 53.141 18.4781 52.0052C28.6833 50.8694 37.7592 59.1541 38.7496 70.5097C39.74 81.8653 32.2699 91.9916 22.0647 93.1274Z" fill="white"/>
<path d="M119.547 64.1508C119.547 75.5597 111.233 84.8085 100.976 84.8085C90.7203 84.8085 82.406 75.5597 82.406 64.1508C82.406 52.7419 90.7203 43.4932 100.976 43.4932C111.233 43.4932 119.547 52.7419 119.547 64.1508Z" fill="white"/>
<path d="M120.708 224.799C120.708 234.851 112.394 243 102.137 243C91.8812 243 83.5669 234.851 83.5669 224.799C83.5669 214.747 91.8812 206.598 102.137 206.598C112.394 206.598 120.708 214.747 120.708 224.799Z" fill="white"/>
<rect width="10.6422" height="154.275" transform="matrix(0.00772986 0.99997 -0.999954 0.00957985 186.065 133.065)" fill="white"/>
<path d="M197.591 155.979C187.976 156.068 180.119 147.469 180.041 136.774C179.964 126.078 187.695 117.336 197.31 117.247C206.925 117.158 214.782 125.756 214.86 136.452C214.937 147.147 207.206 155.89 197.591 155.979Z" fill="white"/>
<path d="M33.9387 156.33C24.3239 156.419 16.4667 147.82 16.3893 137.125C16.3118 126.429 24.0434 117.687 33.6582 117.598C43.273 117.509 51.1302 126.107 51.2076 136.803C51.2851 147.498 43.5535 156.241 33.9387 156.33Z" fill="white"/>
</svg>
