<svg width="164" height="25" viewBox="0 0 164 25" fill="none" xmlns="http://www.w3.org/2000/svg">
<path d="M44.8076 6.22656H47.0903L52.9131 20.7163L58.7236 6.22656H61.0186L53.792 24H52.0098L44.8076 6.22656ZM44.063 6.22656H46.0771L46.4067 17.0664V24H44.063V6.22656ZM59.7368 6.22656H61.751V24H59.4072V17.0664L59.7368 6.22656ZM76.7656 18.6289L80.2935 6.22656H82.0024L81.0137 11.0483L77.2173 24H75.5205L76.7656 18.6289ZM73.1157 6.22656L75.9233 18.3848L76.7656 24H75.0811L70.772 6.22656H73.1157ZM86.5679 18.3726L89.3145 6.22656H91.6704L87.3735 24H85.689L86.5679 18.3726ZM82.2588 6.22656L85.689 18.6289L86.9341 24H85.2373L81.5752 11.0483L80.5742 6.22656H82.2588ZM99.0312 24.2441C98.1117 24.2441 97.2775 24.0895 96.5288 23.7803C95.7882 23.4629 95.1494 23.0194 94.6123 22.4497C94.0833 21.88 93.6764 21.2046 93.3916 20.4233C93.1068 19.6421 92.9644 18.7876 92.9644 17.8599V17.3472C92.9644 16.2729 93.123 15.3167 93.4404 14.4785C93.7578 13.6322 94.1891 12.916 94.7344 12.3301C95.2796 11.7441 95.8981 11.3006 96.5898 10.9995C97.2816 10.6984 97.9977 10.5479 98.7383 10.5479C99.6823 10.5479 100.496 10.7106 101.18 11.0361C101.871 11.3617 102.437 11.8174 102.876 12.4033C103.316 12.9811 103.641 13.6647 103.853 14.4541C104.065 15.2354 104.17 16.0898 104.17 17.0176V18.0308H94.3071V16.1875H101.912V16.0166C101.88 15.4307 101.757 14.861 101.546 14.3076C101.342 13.7542 101.017 13.2985 100.569 12.9404C100.122 12.5824 99.5114 12.4033 98.7383 12.4033C98.2256 12.4033 97.7536 12.5132 97.3223 12.7329C96.891 12.9445 96.5207 13.2619 96.2114 13.6851C95.9022 14.1082 95.6621 14.625 95.4912 15.2354C95.3203 15.8457 95.2349 16.5496 95.2349 17.3472V17.8599C95.2349 18.4865 95.3203 19.0765 95.4912 19.6299C95.6702 20.1751 95.9266 20.6553 96.2603 21.0703C96.6021 21.4854 97.013 21.8109 97.4932 22.0469C97.9814 22.2829 98.5348 22.4009 99.1533 22.4009C99.9508 22.4009 100.626 22.2381 101.18 21.9126C101.733 21.5871 102.217 21.1517 102.632 20.6064L104 21.6929C103.715 22.1242 103.353 22.5352 102.913 22.9258C102.474 23.3164 101.932 23.6338 101.29 23.8779C100.655 24.1221 99.902 24.2441 99.0312 24.2441ZM112.288 24.2441C111.368 24.2441 110.534 24.0895 109.786 23.7803C109.045 23.4629 108.406 23.0194 107.869 22.4497C107.34 21.88 106.933 21.2046 106.648 20.4233C106.364 19.6421 106.221 18.7876 106.221 17.8599V17.3472C106.221 16.2729 106.38 15.3167 106.697 14.4785C107.015 13.6322 107.446 12.916 107.991 12.3301C108.536 11.7441 109.155 11.3006 109.847 10.9995C110.538 10.6984 111.255 10.5479 111.995 10.5479C112.939 10.5479 113.753 10.7106 114.437 11.0361C115.128 11.3617 115.694 11.8174 116.133 12.4033C116.573 12.9811 116.898 13.6647 117.11 14.4541C117.321 15.2354 117.427 16.0898 117.427 17.0176V18.0308H107.564V16.1875H115.169V16.0166C115.136 15.4307 115.014 14.861 114.803 14.3076C114.599 13.7542 114.274 13.2985 113.826 12.9404C113.379 12.5824 112.768 12.4033 111.995 12.4033C111.482 12.4033 111.01 12.5132 110.579 12.7329C110.148 12.9445 109.778 13.2619 109.468 13.6851C109.159 14.1082 108.919 14.625 108.748 15.2354C108.577 15.8457 108.492 16.5496 108.492 17.3472V17.8599C108.492 18.4865 108.577 19.0765 108.748 19.6299C108.927 20.1751 109.183 20.6553 109.517 21.0703C109.859 21.4854 110.27 21.8109 110.75 22.0469C111.238 22.2829 111.792 22.4009 112.41 22.4009C113.208 22.4009 113.883 22.2381 114.437 21.9126C114.99 21.5871 115.474 21.1517 115.889 20.6064L117.256 21.6929C116.972 22.1242 116.609 22.5352 116.17 22.9258C115.73 23.3164 115.189 23.6338 114.546 23.8779C113.912 24.1221 113.159 24.2441 112.288 24.2441ZM128.389 21.4365V5.25H130.66V24H128.584L128.389 21.4365ZM119.502 17.5425V17.2861C119.502 16.277 119.625 15.3615 119.869 14.5396C120.121 13.7095 120.475 12.9974 120.931 12.4033C121.395 11.8092 121.944 11.3535 122.579 11.0361C123.222 10.7106 123.938 10.5479 124.727 10.5479C125.557 10.5479 126.281 10.6943 126.9 10.9873C127.527 11.2721 128.056 11.6912 128.487 12.2446C128.926 12.7899 129.272 13.4491 129.524 14.2222C129.777 14.9953 129.952 15.8701 130.049 16.8467V17.9697C129.96 18.9382 129.785 19.8089 129.524 20.582C129.272 21.3551 128.926 22.0143 128.487 22.5596C128.056 23.1048 127.527 23.5239 126.9 23.8169C126.273 24.1017 125.541 24.2441 124.703 24.2441C123.93 24.2441 123.222 24.0773 122.579 23.7437C121.944 23.41 121.395 22.9421 120.931 22.3398C120.475 21.7376 120.121 21.0296 119.869 20.2158C119.625 19.3939 119.502 18.5028 119.502 17.5425ZM121.773 17.2861V17.5425C121.773 18.2017 121.838 18.8201 121.968 19.3979C122.107 19.9757 122.318 20.4844 122.603 20.9238C122.888 21.3633 123.25 21.7091 123.689 21.9614C124.129 22.2056 124.654 22.3276 125.264 22.3276C126.013 22.3276 126.627 22.1689 127.107 21.8516C127.596 21.5342 127.986 21.1151 128.279 20.5942C128.572 20.0734 128.8 19.5078 128.963 18.8975V15.9556C128.865 15.508 128.723 15.0767 128.536 14.6616C128.357 14.2384 128.121 13.8641 127.828 13.5386C127.543 13.2049 127.189 12.9404 126.766 12.7451C126.351 12.5498 125.858 12.4521 125.289 12.4521C124.67 12.4521 124.137 12.5824 123.689 12.8428C123.25 13.0951 122.888 13.445 122.603 13.8926C122.318 14.332 122.107 14.8447 121.968 15.4307C121.838 16.0085 121.773 16.627 121.773 17.2861Z" fill="#59A076"/>
<path d="M6.87256 23H3.16162L3.18604 21.0835H6.87256C8.14209 21.0835 9.20003 20.819 10.0464 20.29C10.8927 19.7529 11.5275 19.0042 11.9507 18.0439C12.382 17.0755 12.5977 15.9443 12.5977 14.6504V13.564C12.5977 12.5467 12.4756 11.6434 12.2314 10.854C11.9873 10.0565 11.6292 9.38509 11.1572 8.83984C10.6852 8.28646 10.1074 7.86735 9.42383 7.58252C8.74837 7.29769 7.97119 7.15527 7.09229 7.15527H3.08838V5.22656H7.09229C8.25602 5.22656 9.31803 5.42188 10.2783 5.8125C11.2386 6.19499 12.0646 6.75244 12.7563 7.48486C13.4562 8.20915 13.9933 9.08805 14.3677 10.1216C14.742 11.147 14.9292 12.3026 14.9292 13.5884V14.6504C14.9292 15.9362 14.742 17.0959 14.3677 18.1294C13.9933 19.1548 13.4521 20.0296 12.7441 20.7539C12.0443 21.4782 11.1979 22.0356 10.2051 22.4263C9.22038 22.8088 8.10954 23 6.87256 23ZM4.41895 5.22656V23H2.06299V5.22656H4.41895ZM20.3857 11.8672V23H18.1274V9.79199H20.3247L20.3857 11.8672ZM24.5117 9.71875L24.4995 11.8184C24.3123 11.7777 24.1333 11.7533 23.9624 11.7451C23.7996 11.7288 23.6125 11.7207 23.4009 11.7207C22.88 11.7207 22.4202 11.8021 22.0215 11.9648C21.6227 12.1276 21.285 12.3555 21.0083 12.6484C20.7316 12.9414 20.5119 13.2913 20.3491 13.6982C20.1945 14.097 20.0928 14.5365 20.0439 15.0166L19.4092 15.3828C19.4092 14.5853 19.4865 13.8366 19.6411 13.1367C19.8039 12.4368 20.0521 11.8184 20.3857 11.2812C20.7194 10.736 21.1426 10.3128 21.6553 10.0117C22.1761 9.70247 22.7946 9.54785 23.5107 9.54785C23.6735 9.54785 23.8607 9.5682 24.0723 9.60889C24.2839 9.64144 24.4303 9.67806 24.5117 9.71875ZM33.8989 20.7417V13.9424C33.8989 13.4215 33.7931 12.9699 33.5815 12.5874C33.3781 12.1968 33.0688 11.8957 32.6538 11.6841C32.2388 11.4725 31.7261 11.3667 31.1157 11.3667C30.5461 11.3667 30.0456 11.4644 29.6143 11.6597C29.1911 11.855 28.8574 12.1113 28.6133 12.4287C28.3773 12.7461 28.2593 13.0879 28.2593 13.4541H26.001C26.001 12.9821 26.123 12.5142 26.3672 12.0503C26.6113 11.5864 26.9613 11.1673 27.417 10.793C27.8809 10.4105 28.4342 10.1094 29.0771 9.88965C29.7282 9.66178 30.4525 9.54785 31.25 9.54785C32.2103 9.54785 33.0566 9.71061 33.7891 10.0361C34.5296 10.3617 35.1074 10.854 35.5225 11.5132C35.9456 12.1642 36.1572 12.9821 36.1572 13.9668V20.1191C36.1572 20.5586 36.1938 21.0265 36.2671 21.5229C36.3485 22.0194 36.4665 22.4466 36.6211 22.8047V23H34.2651C34.1512 22.7396 34.0617 22.3937 33.9966 21.9624C33.9315 21.5229 33.8989 21.116 33.8989 20.7417ZM34.2896 14.9922L34.314 16.5791H32.0312C31.3883 16.5791 30.8146 16.632 30.3101 16.7378C29.8055 16.8354 29.3823 16.986 29.0405 17.1895C28.6987 17.3929 28.4383 17.6493 28.2593 17.9585C28.0802 18.2596 27.9907 18.6136 27.9907 19.0205C27.9907 19.4355 28.0843 19.814 28.2715 20.1558C28.4587 20.4976 28.7394 20.7702 29.1138 20.9736C29.4963 21.1689 29.9642 21.2666 30.5176 21.2666C31.2093 21.2666 31.8197 21.1201 32.3486 20.8271C32.8776 20.5342 33.2967 20.1761 33.606 19.7529C33.9233 19.3298 34.0942 18.9188 34.1187 18.52L35.083 19.6064C35.026 19.9482 34.8714 20.3267 34.6191 20.7417C34.3669 21.1567 34.0291 21.5555 33.606 21.938C33.1909 22.3123 32.6945 22.6257 32.1167 22.8779C31.547 23.1221 30.9041 23.2441 30.188 23.2441C29.2928 23.2441 28.5075 23.0692 27.832 22.7192C27.1647 22.3693 26.6439 21.9014 26.2695 21.3154C25.9033 20.7214 25.7202 20.0581 25.7202 19.3257C25.7202 18.6177 25.8586 17.9951 26.1353 17.458C26.4119 16.9128 26.8107 16.4611 27.3315 16.103C27.8524 15.7368 28.479 15.4601 29.2114 15.2729C29.9438 15.0858 30.7617 14.9922 31.665 14.9922H34.2896Z" fill="white"/>
</svg>
